<svg xmlns="http://www.w3.org/2000/svg" viewBox="0 0 1919 1003.9995"><defs>
<style>.cls-1{fill:none;stroke:#d0dcd0;stroke-miterlimit:10;stroke-width:1.5px;}.cls-2{fill:#d0dcd0;}</style>
</defs>
<g id="Lines"><line class="cls-1" x1="686.66667" y1="1003.9995" x2="686.66667"/>
<line class="cls-1" y1="141.66644" x2="1919" y2="141.66644"/><line class="cls-1" y1="321.8331" x2="1919" y2="321.8331"/>
<line class="cls-1" y1="501.99977" x2="1919" y2="501.99977"/><line class="cls-1" y1="682.16644" x2="1919" y2="682.16644"/>
<line class="cls-1" y1="862.3331" x2="1919" y2="862.3331"/><line class="cls-1" x1="141.00016" y1="1003.9995" x2="141.00016"/>
<line class="cls-1" x1="322.889" y1="1003.9995" x2="322.889"/><line class="cls-1" x1="504.77783" y1="1003.9995" x2="504.77783"/>
<line class="cls-1" x1="1232.33317" y1="1003.9995" x2="1232.33317"/><line class="cls-1" x1="1414.222" y1="1003.9995" x2="1414.222"/>
<line class="cls-1" x1="1596.11084" y1="1003.9995" x2="1596.11084"/><line class="cls-1" x1="1777.99967" y1="1003.9995" x2="1777.99967"/>
<line class="cls-1" x1="1050.44433" y1="1003.9995" x2="1050.44433"/><line class="cls-1" x1="868.5555" y1="1003.9995" x2="868.5555"/>
</g>
<g id="_35" data-name="35"><polygon class="cls-2" points="1504.297 839.871 1581.588 706 1427.006 706 1504.297 839.871"/></g>
<g id="_34" data-name="34"><polygon class="cls-2" points="1323.278 705.314 1245.987 839.186 1400.568 839.186 1323.278 705.314"/></g>
<g id="_33" data-name="33"><circle class="cls-2" cx="1140.5" cy="772.49977" r="77.5"/></g>
<g id="_32" data-name="32"><polygon class="cls-2" points="998.636 706 921.323 706 882.667 772.954 921.323 839.909 998.636 839.909 1037.292 772.954 998.636 706"/></g>
<g id="_31" data-name="31"><polygon class="cls-2" points="777.979 839.664 855.27 705.793 700.689 705.793 777.979 839.664"/></g>
<g id="_30" data-name="30"><rect class="cls-2" x="518" y="694.99977" width="155" height="155"/></g>
<g id="_29" data-name="29"><circle class="cls-2" cx="413.5" cy="772.49977" r="77.5"/></g>
<g id="_28" data-name="28"><polygon class="cls-2" points="231.063 705.927 153.773 839.799 308.354 839.799 231.063 705.927"/></g>
<g id="_27" data-name="27"><polygon class="cls-2" points="1726.257 532 1648.945 532 1610.288 598.954 1648.945 665.909 1726.257 665.909 1764.913 598.954 1726.257 532"/></g>
<g id="_26" data-name="26"><circle class="cls-2" cx="1504.5" cy="592.49977" r="77.5"/></g>
<g id="_25" data-name="25"><polygon class="cls-2" points="1361.763 525 1284.45 525 1245.794 591.954 1284.45 658.909 1361.763 658.909 1400.419 591.954 1361.763 525"/></g>
<g id="_24" data-name="24"><polygon class="cls-2" points="1141.957 659.04 1219.248 525.168 1064.666 525.168 1141.957 659.04"/></g>
<g id="_23" data-name="23"><rect class="cls-2" x="881.99992" y="514.5831" width="155" height="155"/></g>
<g id="_22" data-name="22"><polygon class="cls-2" points="816.257 525 738.945 525 700.288 591.954 738.945 658.909 816.257 658.909 854.913 591.954 816.257 525"/></g>
<g id="_21" data-name="21"><circle class="cls-2" cx="595.72225" cy="592.0831" r="77.5"/></g>
<g id="_20" data-name="20"><polygon class="cls-2" points="413.833 659.019 491.124 525.147 336.543 525.147 413.833 659.019"/></g>
<g id="_19" data-name="19"><rect class="cls-2" x="154" y="514.99977" width="155" height="155"/></g>
<g id="_18" data-name="18"><circle class="cls-2" cx="1686.5" cy="411.49977" r="77.5"/></g>
<g id="_17" data-name="17"><rect class="cls-2" x="1427" y="333.99977" width="155" height="155"/></g>
<g id="_16" data-name="16"><polygon class="cls-2" points="1360.491 344 1283.179 344 1244.523 410.954 1283.179 477.909 1360.491 477.909 1399.148 410.954 1360.491 344"/></g>
<g id="_15" data-name="15"><polygon class="cls-2" points="1178.922 344 1101.61 344 1062.953 410.954 1101.61 477.909 1178.922 477.909 1217.578 410.954 1178.922 344"/></g>
<g id="_14" data-name="14"><polygon class="cls-2" points="959.5 344.981 882.209 478.852 1036.791 478.852 959.5 344.981"/></g>
<g id="_13" data-name="13"><rect class="cls-2" x="701.00085" y="333.99977" width="155" height="155"/></g>
<g id="_12" data-name="12"><polygon class="cls-2" points="634.68 345 557.367 345 518.711 411.954 557.367 478.909 634.68 478.909 673.336 411.954 634.68 345"/></g>
<g id="_11" data-name="11"><polygon class="cls-2" points="413.414 344.347 336.123 478.219 490.705 478.219 413.414 344.347"/></g>
<g id="_10" data-name="10"><circle class="cls-2" cx="231.5" cy="411.49977" r="77.5"/></g>
<g id="_9" data-name="9"><rect class="cls-2" x="1610" y="153.99977" width="155" height="155"/></g>
<g id="_8" data-name="8"><polygon class="cls-2" points="1543.823 164.795 1466.51 164.795 1427.854 231.75 1466.51 298.704 1543.823 298.704 1582.479 231.75 1543.823 164.795"/></g>
<g id="_6" data-name="6"><rect class="cls-2" x="1064" y="153.99977" width="155" height="155"/></g>
<g id="_7" data-name="7"><circle class="cls-2" cx="1323.27758" cy="231.74977" r="77.5"/></g>
<g id="_4" data-name="4"><circle class="cls-2" cx="778.50085" cy="232.49977" r="77.5"/></g>
<g id="_5" data-name="5"><polygon class="cls-2" points="998.418 165 921.105 165 882.449 231.954 921.105 298.909 998.418 298.909 1037.074 231.954 998.418 165"/></g>
<g id="_3" data-name="3"><polygon class="cls-2" points="595.576 164.152 518.285 298.023 672.867 298.023 595.576 164.152"/></g>
<g id="_2" data-name="2"><rect class="cls-2" x="336" y="153.99977" width="155" height="155"/></g>
<g id="_1" data-name="1"><polygon class="cls-2" points="269.72 165 192.407 165 153.751 231.954 192.407 298.909 269.72 298.909 308.376 231.954 269.72 165"/></g>
</svg>
