<?xml version="1.0" encoding="utf-8"?>
<!-- Generator: Adobe Illustrator 26.0.2, SVG Export Plug-In . SVG Version: 6.00 Build 0)  -->
<svg version="1.1" id="Layer_1" xmlns="http://www.w3.org/2000/svg" xmlns:xlink="http://www.w3.org/1999/xlink" x="0px" y="0px"
	 viewBox="0 0 99.8 99.7" style="enable-background:new 0 0 99.8 99.7;" xml:space="preserve">
<style type="text/css">
	.st0{fill:#FF5F1F;}
</style>
<g>
	<path class="st0" d="M75.2,11.5c-0.1-1-0.7-1.4-1-1.6c-0.9-0.6-1.6-0.1-1.8,0.3c-0.1,0.2-0.2,0.5-0.1,0.8c0.1,0.3,0.3,0.6,0.8,1.1
		c0.6,0.7,1.1,1.3,1.3,2c0.2,0.6,0.2,1.4-0.4,2.3c-1,1.7-3,2.2-4.8,1.1c-1.6-1-2-2.6-2.1-3.5l1.8-0.4c-0.1,1.1,0.5,1.9,1.2,2.3
		c0.8,0.5,1.7,0.3,2.1-0.4c0.2-0.3,0.2-0.6,0.1-1c-0.2-0.5-0.6-1-1-1.5c-0.4-0.4-0.8-1-1-1.7c-0.1-0.4-0.3-1.2,0.3-2.1
		c0.8-1.3,2.4-2.1,4.4-0.9c0.6,0.3,1.6,1.1,1.9,2.5L75.2,11.5z"/>
	<path class="st0" d="M79.4,25.2c-0.7-0.2-1.5-0.6-2.3-1.3c-1.3-1.3-1.7-2.5-1.7-3.7c-0.1-1.7,0.5-2.9,1.6-4c1.3-1.4,2.8-1.8,4-1.8
		c1.4,0,2.6,0.6,3.7,1.7c0.5,0.5,1.1,1.2,1.4,2.2L84.4,20c0.1-1.4-0.7-2.3-1-2.6c-1.5-1.4-3.7-1.2-5,0.2c-1.6,1.7-1.2,3.8,0.1,5
		c0.7,0.7,1.6,1,2.5,0.9L79.4,25.2z"/>
	<path class="st0" d="M90.6,23.9c0.8,1.2,0.8,2,0.8,2.7c-0.1,1-0.8,1.7-1.4,2.1c-0.9,0.5-1.8,0.7-2.7,0.3c-0.3-0.1-0.6-0.3-1-0.7
		l-2,5.1l-1.3-2.1l2-4.6l-0.1-0.2l-3.5,2.2l-1.1-1.7l8.8-5.5L90.6,23.9z M86,25.6l0.3,0.5c0.2,0.3,1.1,1.7,2.4,0.8
		c1.3-0.8,0.5-2.2,0.3-2.5L88.7,24L86,25.6z"/>
	<path class="st0" d="M92.8,43.1c-3,0.9-5.8-0.7-6.7-3.8s0.6-5.9,3.7-6.8c3-0.9,5.8,0.7,6.8,3.8S95.8,42.2,92.8,43.1z M92.2,41.1
		c2-0.6,3-2.4,2.5-4.3c-0.6-1.9-2.4-2.9-4.4-2.3c-2,0.6-3,2.4-2.5,4.3S90.2,41.7,92.2,41.1z"/>
	<path class="st0" d="M98.1,48.1l-8.6,0.3l0.1,3.2l-1.7,0.1l-0.2-5.2L98,46.1L98.1,48.1z"/>
	<path class="st0" d="M97.7,56.7l-8.5-1.2l-0.5,3.2l-1.7-0.2l0.7-5.2l10.3,1.5L97.7,56.7z"/>
	<path class="st0" d="M93.5,70.6c-0.7,1.3-1.4,2.3-2.7,3c-1.4,0.7-3.1,0.7-4.6-0.1c-1.5-0.8-2.5-2.1-2.8-3.8
		c-0.2-1.5,0.2-2.5,0.8-3.8l1.2-2.4l9.2,4.7L93.5,70.6z M86.1,66.1l-0.3,0.6c-0.2,0.5-0.7,1.5-0.5,2.6c0.2,1,0.9,1.9,1.9,2.4
		c1,0.5,2.1,0.6,3,0.1c0.9-0.5,1.5-1.3,1.8-2l0.3-0.6L86.1,66.1z"/>
	<path class="st0" d="M77,83.8c-2.3-2.2-2.3-5.4,0-7.7c2.3-2.3,5.5-2.4,7.7-0.2s2.3,5.4,0,7.8C82.5,85.9,79.2,86,77,83.8z
		 M78.4,82.3c1.5,1.5,3.6,1.5,5,0c1.4-1.5,1.3-3.5-0.2-5c-1.5-1.5-3.6-1.5-5,0S76.9,80.8,78.4,82.3z"/>
	<path class="st0" d="M68.3,83l1.4-0.7l7.7,7.8l-1.9,0.9l-5.1-5.4l0.8,7.5l-1,0.5l-5.2-5.4l0.8,7.4l-1.9,0.9l-1-11l1.4-0.7l4.9,5
		L68.3,83z"/>
	<path class="st0" d="M58.1,87.1l0.9,10.3l-1.4,0.1l-6.9-6.3l0.6,6.9l-2,0.2L48.4,88l1.4-0.1l6.9,6.3l-0.6-6.9L58.1,87.1z"/>
	<path class="st0" d="M41.5,91.4l-3.9-1l0.4-1.7l3.9,1L41.5,91.4z"/>
	<path class="st0" d="M24.6,88.2c0.1,1,0.7,1.4,1,1.6c0.9,0.6,1.6,0.1,1.8-0.3c0.1-0.2,0.2-0.5,0.1-0.8c-0.1-0.3-0.3-0.6-0.8-1.1
		c-0.6-0.7-1.1-1.3-1.3-2c-0.2-0.6-0.2-1.4,0.4-2.3c1-1.7,3-2.2,4.8-1.1c1.6,1,2,2.6,2.1,3.5L31,86.2c0.1-1.1-0.5-1.9-1.2-2.3
		c-0.8-0.5-1.7-0.3-2.1,0.4c-0.2,0.3-0.2,0.6-0.1,1c0.2,0.5,0.6,1,1,1.5c0.4,0.4,0.8,1,1,1.7c0.1,0.4,0.3,1.2-0.3,2.1
		c-0.8,1.3-2.4,2.1-4.4,0.9c-0.6-0.3-1.6-1.1-1.9-2.5L24.6,88.2z"/>
	<path class="st0" d="M20.4,74.5c0.7,0.2,1.5,0.6,2.3,1.3c1.3,1.3,1.7,2.5,1.7,3.7c0.1,1.7-0.5,2.9-1.6,4c-1.3,1.4-2.8,1.8-4,1.8
		c-1.4,0-2.6-0.6-3.7-1.7c-0.5-0.5-1.1-1.2-1.4-2.2l1.6-1.7c-0.1,1.4,0.7,2.3,1,2.6c1.5,1.4,3.7,1.2,5-0.2c1.6-1.7,1.2-3.8-0.1-5
		c-0.7-0.7-1.6-1-2.5-0.9L20.4,74.5z"/>
	<path class="st0" d="M9.2,75.8c-0.8-1.2-0.8-2-0.8-2.7c0.1-1,0.8-1.7,1.4-2.1c0.9-0.5,1.8-0.7,2.7-0.3c0.3,0.1,0.6,0.3,1,0.7l2-5.1
		l1.3,2.1l-2,4.6l0.1,0.2l3.5-2.2l1.1,1.7l-8.8,5.5L9.2,75.8z M13.8,74l-0.3-0.5c-0.2-0.3-1.1-1.7-2.4-0.8c-1.3,0.8-0.5,2.2-0.3,2.5
		l0.3,0.5L13.8,74z"/>
	<path class="st0" d="M7,56.6c3-0.9,5.8,0.7,6.7,3.8c0.9,3.1-0.6,5.9-3.7,6.8c-3,0.9-5.8-0.7-6.8-3.8C2.5,60.3,4,57.5,7,56.6z
		 M7.6,58.6c-2,0.6-3,2.4-2.5,4.3c0.6,1.9,2.4,2.9,4.4,2.3s3-2.4,2.5-4.3C11.4,58.9,9.6,58,7.6,58.6z"/>
	<path class="st0" d="M1.7,51.5l8.6-0.3l-0.1-3.2L12,48l0.2,5.2L1.8,53.6L1.7,51.5z"/>
	<path class="st0" d="M2.2,43l8.5,1.2l0.5-3.2l1.7,0.2l-0.7,5.2L1.9,45L2.2,43z"/>
	<path class="st0" d="M6.4,29c0.7-1.3,1.4-2.3,2.7-3c1.4-0.7,3.1-0.7,4.6,0.1s2.5,2.1,2.8,3.8c0.2,1.5-0.2,2.5-0.8,3.8l-1.2,2.4
		l-9.2-4.7L6.4,29z M13.7,33.6L14,33c0.2-0.5,0.7-1.5,0.5-2.6c-0.1-1-0.9-1.9-1.9-2.4c-1-0.5-2.1-0.6-3-0.1c-0.9,0.5-1.5,1.3-1.8,2
		l-0.3,0.6L13.7,33.6z"/>
	<path class="st0" d="M22.8,15.9c2.3,2.2,2.3,5.4,0,7.7c-2.3,2.3-5.5,2.4-7.7,0.2c-2.3-2.2-2.3-5.4,0-7.8
		C17.4,13.8,20.6,13.7,22.8,15.9z M21.4,17.4c-1.5-1.5-3.6-1.5-5,0s-1.3,3.5,0.2,5c1.5,1.5,3.6,1.5,5,0C23,20.9,22.9,18.9,21.4,17.4
		z"/>
	<path class="st0" d="M31.5,16.6l-1.4,0.7l-7.7-7.8l1.9-0.9l5.1,5.4l-0.8-7.5l1-0.5l5.2,5.4l-0.8-7.4L36.2,3l1,11l-1.4,0.7l-4.9-5
		L31.5,16.6z"/>
	<path class="st0" d="M41.7,12.6L40.7,2.2l1.4-0.1L49,8.5l-0.6-6.9l2-0.2l0.9,10.3L50,11.8l-6.9-6.4l0.6,6.9L41.7,12.6z"/>
	<path class="st0" d="M58.3,8.3l3.9,1L61.8,11l-3.9-1L58.3,8.3z"/>
</g>
</svg>
