<svg id="Layer_1" data-name="Layer 1" xmlns="http://www.w3.org/2000/svg" viewBox="0 0 99.76758 99.74023"><defs><style>.cls-1{font-size:16.09744px;fill:#ff5f1f;font-family:FuturaPT-Demi, Futura PT;font-weight:300;}</style></defs><text class="cls-1" transform="translate(29.75537 19.06299) rotate(-26.51202)">S</text><text class="cls-1" transform="matrix(0.9742, -0.22569, 0.22569, 0.9742, 36.8667, 15.36426)">C</text><text class="cls-1" transform="translate(45.75537 13.25488) rotate(0.92919)">R</text><text class="cls-1" transform="matrix(0.95625, 0.29255, -0.29255, 0.95625, 54.40918, 13.03369)">O</text><text class="cls-1" transform="matrix(0.85226, 0.52313, -0.52313, 0.85226, 66.01758, 16.90234)">L</text><text class="cls-1" transform="translate(71.50195 20.22363) rotate(41.54166)">L</text><text class="cls-1" transform="matrix(0.65249, 0.75779, -0.75779, 0.65249, 76.32031, 24.60107)"> </text><text class="cls-1" transform="translate(78.76172 26.87451) rotate(59.88385)">D</text><text class="cls-1" transform="matrix(0.21961, 0.97559, -0.97559, 0.21961, 84.06836, 35.49463)">O</text><text class="cls-1" transform="translate(87.13281 47.45752) rotate(98.46248)">W</text><text class="cls-1" transform="translate(84.80078 62.1709) rotate(119.25184)">N</text><text class="cls-1" transform="translate(78.59863 72.42578) rotate(131.15496)"> </text><text class="cls-1" transform="matrix(-0.74452, 0.6676, -0.6676, -0.74452, 76.38965, 75.07422)">-</text><text class="cls-1" transform="translate(72.27051 78.70898) rotate(145.099)"> </text><text class="cls-1" transform="translate(69.63965 80.81641) rotate(154.14367)">S</text><text class="cls-1" transform="matrix(-0.97678, 0.21425, -0.21425, -0.97678, 62.47656, 84.43652)">C</text><text class="cls-1" transform="matrix(-0.99968, -0.02529, 0.02529, -0.99968, 53.54932, 86.43164)">R</text><text class="cls-1" transform="translate(44.91357 86.56445) rotate(-162.32328)">O</text><text class="cls-1" transform="translate(33.35645 82.56543) rotate(-147.81137)">L</text><text class="cls-1" transform="translate(27.89063 79.16602) rotate(-137.77365)">L</text><text class="cls-1" transform="translate(23.125 74.73145) rotate(-130.04392)"> </text><text class="cls-1" transform="matrix(-0.49125, -0.87102, 0.87102, -0.49125, 20.70752, 72.42773)">D</text><text class="cls-1" transform="translate(15.51318 63.75781) rotate(-102.01349)">O</text><text class="cls-1" transform="matrix(0.15805, -0.98743, 0.98743, 0.15805, 12.58936, 51.78516)">W</text><text class="cls-1" transform="translate(15.09717 37.05957) rotate(-60.05697)">N</text><text class="cls-1" transform="matrix(0.66706, -0.745, 0.745, 0.66706, 21.4209, 26.88477)"> </text><text class="cls-1" transform="translate(23.64258 24.28076) rotate(-41.24295)">-</text></svg>