<?xml version="1.0" encoding="utf-8"?>
<!-- Generator: Adobe Illustrator 26.0.2, SVG Export Plug-In . SVG Version: 6.00 Build 0)  -->
<svg version="1.1" id="Layer_1" xmlns="http://www.w3.org/2000/svg" xmlns:xlink="http://www.w3.org/1999/xlink" x="0px" y="0px"
	 viewBox="0 0 99.8 99.7" style="enable-background:new 0 0 99.8 99.7;" xml:space="preserve">
<style type="text/css">
	.st0{fill:#FF5F1F;}
	.st1{font-family:'FuturaPT-Medium', sans-serif;}
	.st2{font-size:14px;}
</style>
<text transform="matrix(0.8948 -0.4464 0.4464 0.8948 29.7555 19.0628)" class="st0 st1 st2">S</text>
<text transform="matrix(0.9742 -0.2257 0.2257 0.9742 36.8667 15.3643)" class="st0 st1 st2">C</text>
<text transform="matrix(0.9999 1.621671e-02 -1.621671e-02 0.9999 45.7554 13.2549)" class="st0 st1 st2">R</text>
<text transform="matrix(0.9563 0.2925 -0.2925 0.9563 54.4091 13.0336)" class="st0 st1 st2">O</text>
<text transform="matrix(0.8523 0.5231 -0.5231 0.8523 66.0176 16.9023)" class="st0 st1 st2">L</text>
<text transform="matrix(0.7485 0.6632 -0.6632 0.7485 71.5021 20.2237)" class="st0 st1 st2">L</text>
<text transform="matrix(0.5018 0.865 -0.865 0.5018 78.7619 26.8746)" class="st0 st1 st2">D</text>
<text transform="matrix(0.2196 0.9756 -0.9756 0.2196 84.0684 35.4946)" class="st0 st1 st2">O</text>
<text transform="matrix(-0.1472 0.9891 -0.9891 -0.1472 87.1326 47.4575)" class="st0 st1 st2">W</text>
<text transform="matrix(-0.4886 0.8725 -0.8725 -0.4886 84.8001 62.1711)" class="st0 st1 st2">N</text>
<text transform="matrix(-0.7445 0.6676 -0.6676 -0.7445 76.3899 75.0747)" class="st0 st1 st2">-</text>
<text transform="matrix(-0.8999 0.4361 -0.4361 -0.8999 69.6399 80.8169)" class="st0 st1 st2">S</text>
<text transform="matrix(-0.9768 0.2142 -0.2142 -0.9768 62.4764 84.4365)" class="st0 st1 st2">C</text>
<text transform="matrix(-0.9997 -2.529000e-02 2.529000e-02 -0.9997 53.5497 86.4315)" class="st0 st1 st2">R</text>
<text transform="matrix(-0.9528 -0.3036 0.3036 -0.9528 44.9133 86.5636)" class="st0 st1 st2">O</text>
<text transform="matrix(-0.8463 -0.5327 0.5327 -0.8463 33.3561 82.5651)" class="st0 st1 st2">L</text>
<text transform="matrix(-0.7405 -0.6721 0.6721 -0.7405 27.891 79.1667)" class="st0 st1 st2">L</text>
<text transform="matrix(-0.4913 -0.871 0.871 -0.4913 20.7075 72.4287)" class="st0 st1 st2">D</text>
<text transform="matrix(-0.2081 -0.9781 0.9781 -0.2081 15.5132 63.7582)" class="st0 st1 st2">O</text>
<text transform="matrix(0.1581 -0.9874 0.9874 0.1581 12.5894 51.7852)" class="st0 st1 st2">W</text>
<text transform="matrix(0.4991 -0.8665 0.8665 0.4991 15.0972 37.0597)" class="st0 st1 st2">N</text>
<text transform="matrix(0.7519 -0.6593 0.6593 0.7519 23.6425 24.2809)" class="st0 st1 st2">-</text>
</svg>
