<svg id="Layer_1" data-name="Layer 1" xmlns="http://www.w3.org/2000/svg" viewBox="0 0 267.20001 388"><defs><style>.cls-1{fill:#ff5f1f;}</style></defs><path d="M108.8,201v26.1h16V366.7h28.8V227.1h40.8V201Z" transform="translate(-108.79999 -70.70001)"/><path d="M347.2,200.7v23.6A68.7242,68.7242,0,0,0,315.88,201a74.266,74.266,0,0,0-25.48-4.3,84.28784,84.28784,0,0,0-26.63,4.3,78.97844,78.97844,0,0,0-30.17,18.1,74.13149,74.13149,0,0,0-5.6,6.26c-9.87,12.32-18.4,30.82-18.4,58.14,0,28.06,8.93005,47.19,18.4,59.26a69.43738,69.43738,0,0,0,5.6,6.34q2.01,2.01,4.24005,3.9c12.71,10.8,30.71,18.5,52.56,18.5,21.99,0,37.62-8.84,48.1-18.5a78.07782,78.07782,0,0,0,8.7-9.5v24c0,14-.8,28.8-9.2,42.4-9.6,16-23.6,23.2-44,23.2-12.8,0-28-2.8-40-16a52.26211,52.26211,0,0,1-12.8-34.4H212.8c0,24.4,10.4,42.4,21.6,53.6,11.2,11.2,30.8,22.4,59.2,22.4,31.2,0,54-14,66.4-30.8C376,406.3,376,380.7,376,362.7v-162ZM330,331.9c-9.2,9.2-21.2,14-36.4,14s-26.4-5.2-35.6-13.6c-16-14.8-18.8-34.4-18.8-48.8,0-13.6,2.8-31.2,16.8-45.6a51.45761,51.45761,0,0,1,37.6-15.6c14.8,0,28.4,5.6,37.6,14.8,10.4,10,17.6,27.2,17.6,46.8C348.8,303.5,341.2,321.1,330,331.9Z" transform="translate(-108.79999 -70.70001)"/><path class="cls-1" d="M153.6,131.5v69.2h40.8v.3H108.8v-.3h16V128.3c0-15.2,1.2-34.4,16-46.8,8-6.8,20-10.8,33.2-10.8a55.65792,55.65792,0,0,1,20.4,3.6v28a52.23906,52.23906,0,0,0-18.8-3.6c-6.4,0-14,1.6-18.4,8.8C153.6,113.5,153.6,122.7,153.6,131.5Z" transform="translate(-108.79999 -70.70001)"/><path class="cls-1" d="M348.8,283.9c0,19.6-7.6,37.2-18.8,48-9.2,9.2-21.2,14-36.4,14s-26.4-5.2-35.6-13.6c-16-14.8-18.8-34.4-18.8-48.8,0-13.6,2.8-31.2,16.8-45.6a51.45761,51.45761,0,0,1,37.6-15.6c14.8,0,28.4,5.6,37.6,14.8C341.6,247.1,348.8,264.3,348.8,283.9Z" transform="translate(-108.79999 -70.70001)"/></svg>