<svg id="Layer_1" data-name="Layer 1" xmlns="http://www.w3.org/2000/svg" viewBox="0 0 280.70001 387.99823"><defs><style>.cls-1{fill:#0c1618;}.cls-2,.cls-3{fill:#ff5f1f;}.cls-3{stroke:#ff5f1f;stroke-miterlimit:10;stroke-width:9px;}</style></defs><path class="cls-1" d="M174,70.7c-13.2,0-25.2,4-33.2,10.8-14.8,12.4-16,31.6-16,46.8v72.4h28.8V131.5c0-8.8,0-18,3.6-24,4.4-7.2,12-8.8,18.4-8.8a52.23906,52.23906,0,0,1,18.8,3.6v-28A55.65792,55.65792,0,0,0,174,70.7Zm-49.2,296h28.8V227.1H124.8Z" transform="translate(-108.79999 -70.70001)"/><path class="cls-1" d="M347.19824,200.70166h28.79981V362.69922c0,18,0,43.59961-16,65.19922-12.39942,16.7998-35.19922,30.7998-66.39844,30.7998-28.40039,0-48-11.20019-59.19922-22.40039-11.20019-11.19922-21.6001-29.19922-21.6001-53.59863H241.2002A52.25949,52.25949,0,0,0,254,417.09863c12,13.19922,27.19922,16,39.999,16,20.39942,0,34.39942-7.20019,44-23.20019,8.39942-13.59961,9.19922-28.39942,9.19922-42.39942V343.5c-9.59961,12.39941-27.59961,27.999-56.79883,27.999-24.39941,0-43.999-9.59961-56.79882-22.39941-11.2002-11.2002-24-31.999-24-65.59863,0-32.39942,12-52.39991,24-64.39942,13.999-13.6001,34.39941-22.3999,56.79882-22.3999,24.39942,0,43.59961,10.3999,56.79883,27.59961ZM256,237.90137c-14,14.39941-16.7998,32-16.7998,45.59961C239.2002,297.90039,242,317.5,258,332.2998c9.19922,8.4004,20.39941,13.59961,35.59961,13.59961,15.19922,0,27.19922-4.7998,36.39941-13.999,11.19922-10.7998,18.79981-28.40039,18.79981-48s-7.2002-36.79932-17.60059-46.79932c-9.19922-9.1997-22.79883-14.7998-37.59863-14.7998A51.45742,51.45742,0,0,0,256,237.90137Z" transform="translate(-108.79999 -70.70001)"/><rect class="cls-2" y="130" width="85.60004" height="26.39996"/><line class="cls-3" x1="118.70001" y1="134.29999" x2="280.70001" y2="134.29999"/></svg>