<?xml version="1.0" encoding="utf-8"?>
<!-- Generator: Adobe Illustrator 26.0.2, SVG Export Plug-In . SVG Version: 6.00 Build 0)  -->
<svg version="1.1" id="Layer_1" xmlns="http://www.w3.org/2000/svg" xmlns:xlink="http://www.w3.org/1999/xlink" x="0px" y="0px"
	 viewBox="0 0 267 388" style="enable-background:new 0 0 267 388;" xml:space="preserve">
<style type="text/css">
	.st0{fill:#0C1618;}
	.st1{fill:#FF5F1F;}
	.st2{fill:none;stroke:#FF5F1F;stroke-width:3.9862;stroke-miterlimit:10;}
	.st3{fill:none;stroke:#FF5F1F;stroke-width:4.0519;stroke-miterlimit:10;}
</style>
<path class="st0" d="M44.7,156.4V296H15.9V156.4h-16V130h16V57.6c0-15.2,1.2-34.4,16-46.8C39.9,4,51.9,0,65.1,0
	c7-0.1,13.9,1.1,20.4,3.6v28c-6-2.3-12.4-3.6-18.8-3.6c-6.4,0-14,1.6-18.4,8.8c-3.6,6-3.6,15.2-3.6,24V130h40.8v26.4H44.7z"/>
<path class="st0" d="M238.3,130v23.6c-13.2-17.2-32.4-27.6-56.8-27.6c-22.4,0-42.8,8.8-56.8,22.4c-12,12-24,32-24,64.4
	c0,33.6,12.8,54.4,24,65.6c12.8,12.8,32.4,22.4,56.8,22.4c29.2,0,47.2-15.6,56.8-28v24c0,14-0.8,28.8-9.2,42.4
	c-9.6,16-23.6,23.2-44,23.2c-12.8,0-28-2.8-40-16c-5.9-6.7-9.9-14.8-11.7-23.5l-28.4,2.7c2.5,15.1,9.7,29.1,20.5,40
	c11.2,11.2,30.8,22.4,59.2,22.4c31.2,0,54-14,66.4-30.8c16-21.6,16-47.2,16-65.2V130L238.3,130z M221.1,261.2
	c-9.2,9.2-21.2,14-36.4,14c-15.2,0-26.4-5.2-35.6-13.6c-16-14.8-18.8-34.4-18.8-48.8c0-13.6,2.8-31.2,16.8-45.6
	c9.9-10.1,23.5-15.8,37.6-15.6c14.8,0,28.4,5.6,37.6,14.8c10.4,10,17.6,27.2,17.6,46.8C239.9,232.8,232.3,250.4,221.1,261.2z"/>
<path class="st1" d="M133.4,322.9l-28.4,2.7c-0.8-4.5-1.1-9.1-1.1-13.7h28.4C132.3,315.7,132.7,319.3,133.4,322.9z"/>
<line class="st2" x1="15.9" y1="107.3" x2="44.7" y2="107.3"/>
<line class="st2" x1="238.3" y1="280.7" x2="267.1" y2="280.7"/>
<line class="st3" x1="100.7" y1="214.6" x2="130.3" y2="214.6"/>
</svg>
