<svg id="Layer_1" data-name="Layer 1" xmlns="http://www.w3.org/2000/svg" viewBox="0 0 267.19531 387.9964"><defs><style>.cls-1{fill:#0c1618;}.cls-2,.cls-3,.cls-4{fill:#ff5f1f;}.cls-3,.cls-4{stroke:#ff5f1f;stroke-miterlimit:10;}.cls-3{stroke-width:3.98618px;}.cls-4{stroke-width:4.05191px;}</style></defs><path class="cls-1" d="M153.604,227.10156V366.69922H124.8042V227.10156H108.80469v-26.3999H124.8042V128.30273c0-15.1997,1.20019-34.39941,16-46.79931,7.99951-6.79981,19.99951-10.79981,33.19922-10.79981a55.65393,55.65393,0,0,1,20.3999,3.6001v27.99951a52.24078,52.24078,0,0,0-18.7998-3.6001c-6.39991,0-14,1.6001-18.39991,8.79981-3.59961,6-3.59961,15.20019-3.59961,24v69.19873h40.79932v26.3999Z" transform="translate(-108.80469 -70.70361)"/><path class="cls-1" d="M347.2,200.7v23.6c-13.2-17.2-32.4-27.6-56.8-27.6-22.4,0-42.8,8.8-56.8,22.4-12,12-24,32-24,64.4,0,33.6,12.8,54.4,24,65.6,12.8,12.8,32.4,22.4,56.8,22.4,29.2,0,47.2-15.6,56.8-28v24c0,14-.8,28.8-9.2,42.4-9.6,16-23.6,23.2-44,23.2-12.8,0-28-2.8-40-16a51.23572,51.23572,0,0,1-11.65-23.48l-28.41,2.73A73.76058,73.76058,0,0,0,234.4,436.3c11.2,11.2,30.8,22.4,59.2,22.4,31.2,0,54-14,66.4-30.8C376,406.3,376,380.7,376,362.7v-162ZM330,331.9c-9.2,9.2-21.2,14-36.4,14s-26.4-5.2-35.6-13.6c-16-14.8-18.8-34.4-18.8-48.8,0-13.6,2.8-31.2,16.8-45.6a51.45761,51.45761,0,0,1,37.6-15.6c14.8,0,28.4,5.6,37.6,14.8,10.4,10,17.6,27.2,17.6,46.8C348.8,303.5,341.2,321.1,330,331.9Z" transform="translate(-108.80469 -70.70361)"/><path class="cls-2" d="M242.35,393.62l-28.41,2.73a80.37955,80.37955,0,0,1-1.14-13.65h28.4A52.65246,52.65246,0,0,0,242.35,393.62Z" transform="translate(-108.80469 -70.70361)"/><line class="cls-3" x1="15.99531" y1="107.29639" x2="44.79531" y2="107.29639"/><line class="cls-3" x1="238.39531" y1="280.72401" x2="267.19531" y2="280.72401"/><line class="cls-4" x1="100.79531" y1="214.60261" x2="130.39531" y2="214.60261"/></svg>