<?xml version="1.0" encoding="utf-8"?>
<!-- Generator: Adobe Illustrator 26.0.2, SVG Export Plug-In . SVG Version: 6.00 Build 0)  -->
<svg version="1.1" id="Layer_1" xmlns="http://www.w3.org/2000/svg" xmlns:xlink="http://www.w3.org/1999/xlink" x="0px" y="0px"
	 viewBox="0 0 267 388" style="enable-background:new 0 0 267 388;" xml:space="preserve">
<style type="text/css">
	.st0{fill:#0C1618;}
	.st1{fill:#FF5F1F;}
</style>
<path class="st0" d="M-0.1,130.3v26.1h16V296h28.8V156.4h40.8v-26.1H-0.1z"/>
<path class="st0" d="M238.3,130v23.6c-8-10.6-18.8-18.7-31.3-23.3c-8.2-2.9-16.8-4.4-25.5-4.3c-9,0-18,1.4-26.6,4.3
	c-11.3,3.7-21.6,9.9-30.2,18.1c-2,2-3.9,4.1-5.6,6.3c-9.9,12.3-18.4,30.8-18.4,58.1c0,28.1,8.9,47.2,18.4,59.3
	c1.7,2.2,3.6,4.3,5.6,6.3c1.3,1.3,2.8,2.6,4.2,3.9c12.7,10.8,30.7,18.5,52.6,18.5c22,0,37.6-8.8,48.1-18.5c3.2-2.9,6.1-6.1,8.7-9.5
	v24c0,14-0.8,28.8-9.2,42.4c-9.6,16-23.6,23.2-44,23.2c-12.8,0-28-2.8-40-16c-8.3-9.5-12.8-21.8-12.8-34.4h-28.4
	c0,24.4,10.4,42.4,21.6,53.6c11.2,11.2,30.8,22.4,59.2,22.4c31.2,0,54-14,66.4-30.8c16-21.6,16-47.2,16-65.2V130L238.3,130z
	 M221.1,261.2c-9.2,9.2-21.2,14-36.4,14s-26.4-5.2-35.6-13.6c-16-14.8-18.8-34.4-18.8-48.8c0-13.6,2.8-31.2,16.8-45.6
	c9.9-10.1,23.5-15.8,37.6-15.6c14.8,0,28.4,5.6,37.6,14.8c10.4,10,17.6,27.2,17.6,46.8C239.9,232.8,232.3,250.4,221.1,261.2z"/>
<path class="st1" d="M44.7,60.8V130h40.8v0.3H-0.1V130h16V57.6c0-15.2,1.2-34.4,16-46.8C39.9,4,51.9,0,65.1,0
	c7-0.1,13.9,1.1,20.4,3.6v28c-6-2.3-12.4-3.6-18.8-3.6c-6.4,0-14,1.6-18.4,8.8C44.7,42.8,44.7,52,44.7,60.8z"/>
<path class="st1" d="M239.9,213.2c0,19.6-7.6,37.2-18.8,48c-9.2,9.2-21.2,14-36.4,14s-26.4-5.2-35.6-13.6
	c-16-14.8-18.8-34.4-18.8-48.8c0-13.6,2.8-31.2,16.8-45.6c9.9-10.1,23.5-15.8,37.6-15.6c14.8,0,28.4,5.6,37.6,14.8
	C232.7,176.4,239.9,193.6,239.9,213.2z"/>
</svg>
