<?xml version="1.0" encoding="utf-8"?>
<!-- Generator: Adobe Illustrator 26.0.2, SVG Export Plug-In . SVG Version: 6.00 Build 0)  -->
<svg version="1.1" id="Layer_1" xmlns="http://www.w3.org/2000/svg" xmlns:xlink="http://www.w3.org/1999/xlink" x="0px" y="0px"
	 viewBox="0 0 267 388" style="enable-background:new 0 0 267 388;" xml:space="preserve">
<style type="text/css">
	.st0{fill:#0C1618;}
	.st1{fill:#FF5F1F;}
	.st2{fill:none;stroke:#FF5F1F;stroke-width:8.6168;stroke-miterlimit:10;}
</style>
<path class="st0" d="M65.1,0C51.9,0,39.9,4,31.9,10.8c-14.8,12.4-16,31.6-16,46.8V130h28.8V60.8c0-8.8,0-18,3.6-24
	c4.4-7.2,12-8.8,18.4-8.8c6.4,0,12.8,1.3,18.8,3.6v-28C79,1.1,72.1-0.1,65.1,0z M15.9,296h28.8V156.4H15.9V296z"/>
<path class="st0" d="M238.3,130h28.8v162c0,18,0,43.6-16,65.2C238.7,374,215.9,388,184.7,388c-28.4,0-48-11.2-59.2-22.4
	c-11.2-11.2-21.6-29.2-21.6-53.6h28.4c0,12.6,4.5,24.9,12.8,34.4c12,13.2,27.2,16,40,16c20.4,0,34.4-7.2,44-23.2
	c8.4-13.6,9.2-28.4,9.2-42.4v-24c-9.6,12.4-27.6,28-56.8,28c-24.4,0-44-9.6-56.8-22.4c-11.2-11.2-24-32-24-65.6
	c0-32.4,12-52.4,24-64.4c14-13.6,34.4-22.4,56.8-22.4c24.4,0,43.6,10.4,56.8,27.6L238.3,130z M147.1,167.2
	c-14,14.4-16.8,32-16.8,45.6c0,14.4,2.8,34,18.8,48.8c9.2,8.4,20.4,13.6,35.6,13.6c15.2,0,27.2-4.8,36.4-14
	c11.2-10.8,18.8-28.4,18.8-48s-7.2-36.8-17.6-46.8c-9.2-9.2-22.8-14.8-37.6-14.8C170.6,151.4,157,157.1,147.1,167.2z"/>
<rect x="-0.1" y="130" class="st1" width="85.6" height="26.4"/>
<line class="st2" x1="118.6" y1="134.3" x2="267.1" y2="134.3"/>
</svg>
